<svg xmlns="http://www.w3.org/2000/svg" viewBox="140 280 420 180">
  <g fill="#8B7EFF">
    <path d="M323.5 460.6 c-2.2 -0.7 -11.6 -5.2 -21 -10 -15.4 -7.8 -17.9 -8.8 -26.5 -10.1 -29.5 -4.6 -47.7 -11 -66.3 -23.3 -6.4 -4.2 -24.4 -20.8 -23.5 -21.7 0.2 -0.3 3.3 0.7 6.8 2.2 15.2 6.1 39.8 8.1 56.6 4.7 12.3 -2.5 12.1 -3.3 -0.5 -3.4 -19.6 0 -36.5 -3.7 -54.6 -11.9 -17.8 -8.1 -39.4 -26.1 -52.2 -43.5 -7.3 -9.9 -7.3 -9.9 3.2 -5 5.3 2.5 14.8 5.9 21.3 7.6 10.7 2.9 13.1 3.1 28.7 3.2 16.9 0.1 27 -0.8 26 -2.3 -0.2 -0.5 -3.5 -1.1 -7.2 -1.5 -9.4 -0.9 -29.6 -6 -40.6 -10.2 -32.7 -12.5 -55.4 -32.4 -69.2 -60.8 -4.8 -9.8 -10.3 -26.1 -9.3 -27.1 0.2 -0.3 2.9 1.6 5.8 4.1 25.4 21.3 62.2 37 95.5 40.9 7.1 0.9 6.5 -0.1 -2 -3.5 -55.5 -21.8 -97.1 -67.1 -110.6 -120.7 -2.8 -11.2 -5 -30.7 -3.2 -28.8 0.5 0.6 3.1 3.7 5.8 7 38.2 46.2 97 83.4 177.1 112 22 7.8 27.1 10.7 34 19.2 8.4 10.3 11 23.8 8 40.8 -7.4 41 3 87 28.5 126 5.4 8.3 6.1 12.3 2.9 15.5 -2.3 2.3 -7.4 2.5 -13.5 0.6z"/>
    <path d="M363.3 459.8 c-3.5 -3.7 -2.9 -7 3.3 -16.6 11.9 -18.6 22.9 -45 26.8 -64.2 4.1 -20.5 4.5 -42.5 1 -61.5 -3.2 -17.5 -0.1 -30.9 9.4 -41.6 6.2 -7 12.4 -10.4 29.3 -16.3 29.7 -10.4 53.9 -20.7 75.9 -32.3 42.2 -22.3 78.2 -49.8 101.7 -77.8 l8.8 -10.5 0.3 3.7 c0.9 10 -6.1 37.2 -13.9 54.1 -18.9 41 -56.6 75.4 -101.9 92.8 -9.8 3.8 -6.5 4.3 9.6 1.4 29 -5.2 62.6 -20.6 83.9 -38.4 7.6 -6.4 7.5 -6.4 6 0.3 -4.7 20 -15.5 38.1 -32.4 54.4 -21.8 21 -47.4 32.1 -90.6 39.3 l-4 0.7 3 0.9 c1.7 0.5 10 1.2 18.5 1.5 11.9 0.4 17.7 0.1 25 -1.1 11.4 -2 28.5 -7.6 35.8 -11.7 2.8 -1.6 5.2 -2.6 5.2 -2.2 0 0.5 -2.9 4.7 -6.4 9.4 -12.9 17.1 -34.5 34.9 -52.7 43.3 -16.9 7.8 -29.1 10.6 -49.9 11.5 l-15.5 0.6 8 2 c6.5 1.6 11.2 2 25 1.9 17.9 -0.1 23.6 -1 36.3 -6.3 l5.4 -2.1 -2.2 3 c-2.9 4 -14.4 14.2 -21.6 19.2 -14 9.5 -33.2 17 -53.4 20.8 -22.2 4.1 -24 4.7 -42.5 14 -14.2 7.2 -19.2 9.3 -23.5 9.7 -4.9 0.4 -5.7 0.2 -7.7 -1.9z"/>
  </g>
</svg>